Coordinates
version=1
nRows=13
nColumns=40
inDegrees=yes

Units are S.I. units (second, meters, Newtons, ...)
Angles are in degrees.

endheader
time	pelvis_tilt	pelvis_list	pelvis_rotation	pelvis_tx	pelvis_ty	pelvis_tz	hip_flexion_r	hip_adduction_r	hip_rotation_r	knee_angle_r	knee_angle_r_beta	ankle_angle_r	subtalar_angle_r	mtp_angle_r	hip_flexion_l	hip_adduction_l	hip_rotation_l	knee_angle_l	knee_angle_l_beta	ankle_angle_l	subtalar_angle_l	mtp_angle_l	lumbar_extension	lumbar_bending	lumbar_rotation	arm_flex_r	arm_add_r	arm_rot_r	elbow_flex_r	pro_sup_r	wrist_flex_r	wrist_dev_r	arm_flex_l	arm_add_l	arm_rot_l	elbow_flex_l	pro_sup_l	wrist_flex_l	wrist_dev_l
     50.94692857	     -4.14970464	     -4.28047487	     -2.17612631	      1.06362598	      0.92643025	      0.47351936	     28.21857209	     -0.81990906	    -13.52101587	     17.39500763	     17.39500763	      2.67892796	      2.96411332	      8.07860467	      1.00249685	     -4.07663894	     -9.82360325	     13.58453090	     13.58453090	     18.40400025	     -4.05050725	     -3.57794238	    -11.64904247	      5.33142424	      1.52907310	    -24.33789090	    -11.41008612	     -9.41240167	     26.72122186	     46.55495814	      0.00000000	      0.00000000	     25.16697412	    -20.41923451	     -8.99036543	     96.77701601	     47.69015771	      0.00000000	      0.00000000
     50.95885714	     -4.10462791	     -4.13265866	     -2.13420837	      1.06533292	      0.92497588	      0.47491885	     27.44687340	     -0.67804292	    -14.16374055	     16.23607833	     16.23607833	      2.72347898	      3.84513663	      8.59024461	      0.26532028	     -4.01706052	    -10.04600466	     13.49467862	     13.49467862	     18.86567600	     -3.58429623	     -3.65520787	    -11.45820829	      5.06512622	      1.55047915	    -24.20849723	    -11.38023226	     -9.36178924	     26.98617072	     46.53685995	      0.00000000	      0.00000000	     25.08751218	    -20.30044526	     -8.93536530	     97.64319536	     47.71897162	      0.00000000	      0.00000000
     50.97078571	     -4.11807176	     -4.00497759	     -2.07646593	      1.06702788	      0.92342766	      0.47638333	     26.92063780	     -0.54720924	    -14.47573319	     15.74411932	     15.74411932	      2.73169954	      4.06935001	      8.67363148	     -0.33389589	     -3.98171402	    -10.09521856	     13.53005204	     13.53005204	     19.29823709	     -3.38185799	     -3.74288813	    -11.19033133	      4.83786395	      1.54755039	    -23.80199003	    -11.34291173	     -9.31294548	     27.19640809	     46.52607269	      0.00000000	      0.00000000	     24.99647513	    -20.03507240	     -8.81410402	     98.06547014	     47.72562640	      0.00000000	      0.00000000
     50.98271429	     -4.22627670	     -3.96665145	     -2.03032912	      1.06872092	      0.92182186	      0.47808006	     26.60574225	     -0.36293918	    -14.64274241	     15.74642199	     15.74642199	      2.82240670	      4.02117343	      8.60614968	     -0.82645124	     -4.05426511	    -10.02791758	     13.57383776	     13.57383776	     19.72760618	     -3.37018434	     -3.86785268	    -10.82792331	      4.72195663	      1.70038359	    -23.47829464	    -11.34969062	     -9.29455722	     27.31800986	     46.52203399	      0.00000000	      0.00000000	     24.87622611	    -19.91554459	     -8.75961216	     98.18046262	     47.72527397	      0.00000000	      0.00000000
     50.99464286	     -4.04727285	     -4.11278551	     -1.92609502	      1.07070739	      0.92081474	      0.47984969	     25.75943000	      0.05019585	    -14.62439250	     15.48674267	     15.48674267	      1.60949859	      3.44871030	      4.81815758	     -1.40965109	     -4.54448037	    -10.92380267	     14.21902485	     14.21902485	     21.15650708	     -1.53492591	     -2.36541360	    -10.87592866	      4.80870298	      1.00201419	    -22.16075934	    -11.71703680	     -8.26297318	     27.18914891	     46.44718545	      0.00000000	      0.00000000	     23.42876824	    -20.04487277	     -9.48813945	    100.29744282	     47.88786775	      0.00000000	      0.00000000
     51.00657143	     -4.00302173	     -4.21192677	     -1.83374214	      1.07245792	      0.91989187	      0.48162506	     25.36282962	      0.28455721	    -14.61001385	     15.99766158	     15.99766158	      1.77617657	      3.09288977	      4.50283272	     -1.96801783	     -4.79615543	    -10.80905483	     14.44378602	     14.44378602	     21.43748267	     -1.63664226	     -2.40383755	    -10.72253054	      4.86275018	      1.19597086	    -21.33730298	    -11.69148962	     -8.17769088	     27.41864358	     46.43775703	      0.00000000	      0.00000000	     23.04816419	    -19.57042259	     -9.24588953	    100.25239405	     47.87322511	      0.00000000	      0.00000000
     51.01850000	     -4.01088904	     -4.31361365	     -1.75024910	      1.07415893	      0.91915787	      0.48345743	     25.00303676	      0.52033582	    -14.50914451	     16.53426296	     16.53426296	      2.09962445	      2.69673755	      4.13736947	     -2.42327937	     -5.06319661	    -10.66317810	     14.73907511	     14.73907511	     21.70001310	     -1.72895019	     -2.46498928	    -10.55830616	      4.89235921	      1.49768166	    -20.40939695	    -11.68991898	     -8.11340480	     27.68215360	     46.42975889	      0.00000000	      0.00000000	     22.59823542	    -19.16298486	     -9.03264530	    100.17494074	     47.85779495	      0.00000000	      0.00000000
     51.03042857	     -4.09072033	     -4.34497738	     -1.64005642	      1.07543493	      0.91820610	      0.48538011	     25.25165041	      0.73629949	    -13.32346080	     17.94323947	     17.94323947	      1.96345671	      0.21487608	      2.34371022	     -2.23101570	     -5.42336390	    -10.69774459	     16.08379383	     16.08379383	     22.19818507	     -1.79048084	     -2.31047714	    -10.34513113	      4.90876768	      1.36578196	    -19.03711030	    -11.80637768	     -7.68996340	     27.44350715	     46.41957675	      0.00000000	      0.00000000	     21.79551453	    -18.92966663	     -8.98419996	    100.25425205	     47.87035255	      0.00000000	      0.00000000
     51.04235714	     -3.96993404	     -4.54937731	     -1.51243704	      1.07699015	      0.91816259	      0.48745383	     24.62744968	      1.25040047	    -12.45985490	     18.08510779	     18.08510779	      0.81110440	     -1.90594668	     -1.86352670	     -2.31899772	     -6.02561606	    -10.97128854	     17.38214831	     17.38214831	     22.94897540	     -1.24436950	     -1.37976305	    -10.37496122	      5.03959890	      0.78583747	    -16.67990335	    -12.13058991	     -6.05794588	     25.90903049	     46.38266147	      0.00000000	      0.00000000	     20.26026504	    -18.76582210	     -9.73967118	    100.79497325	     47.99114913	      0.00000000	      0.00000000
     51.05428571	     -3.93293885	     -4.68063206	     -1.36048080	      1.07826431	      0.91828990	      0.48933099	     24.40257565	      1.44572921	    -12.18180135	     18.93624509	     18.93624509	      1.36425330	     -2.50776378	     -2.30773166	     -2.18271652	     -6.45987947	    -10.60092106	     18.76580095	     18.76580095	     22.95957602	     -1.79759066	     -1.61196292	    -10.39698064	      5.12282107	      0.99988904	    -15.30623380	    -12.22324365	     -5.89395849	     26.29092297	     46.36650424	      0.00000000	      0.00000000	     19.44549881	    -18.31377535	     -9.49787293	    100.32763511	     47.97081354	      0.00000000	      0.00000000
     51.06621429	     -3.95976305	     -4.80199262	     -1.22322915	      1.07929415	      0.91864603	      0.49121075	     24.16388552	      1.69756569	    -11.76759277	     19.55657501	     19.55657501	      1.85876102	     -3.45217666	     -2.60577529	     -1.63228545	     -6.96319242	    -10.33788584	     20.73663821	     20.73663821	     22.73325712	     -2.53566856	     -2.02856574	    -10.34521935	      5.26069571	      1.01183825	    -13.65717478	    -12.29641168	     -5.63552083	     26.59575118	     46.34925610	      0.00000000	      0.00000000	     18.42919075	    -17.83912487	     -9.29992550	     99.65975809	     47.95100280	      0.00000000	      0.00000000
     51.07814286	     -3.97602457	     -4.91258228	     -1.08371841	      1.08025875	      0.91933498	      0.49316885	     23.78515850	      1.99298542	    -11.26841300	     19.89474879	     19.89474879	      2.33578364	     -4.44759605	     -2.77630057	     -0.93945612	     -7.49373533	    -10.02848528	     22.94120675	     22.94120675	     22.18616494	     -3.30711806	     -2.92957209	    -10.32192119	      5.33175278	      0.91952171	    -11.65909448	    -12.43129742	     -5.03444157	     26.56479360	     46.32444341	      0.00000000	      0.00000000	     17.17458237	    -17.35687569	     -9.35666351	     98.84243665	     47.95507828	      0.00000000	      0.00000000
     51.09007143	     -3.77334297	     -5.05053045	     -0.91109049	      1.08116475	      0.92057297	      0.49500438	     23.03608929	      2.23623668	    -11.19331523	     20.00448714	     20.00448714	      2.93944474	     -4.59965118	     -2.96925050	     -0.26019689	     -8.07338567	     -9.64127899	     25.51327577	     25.51327577	     21.50335615	     -4.23435080	     -3.50856899	    -10.62596148	      5.46254209	      1.08764757	     -9.84717014	    -12.54720081	     -4.85320779	     27.01456245	     46.30855076	      0.00000000	      0.00000000	     16.17479048	    -16.78106250	     -9.05515905	     98.09905555	     47.92245411	      0.00000000	      0.00000000
